<svg width="4348" height="940" viewBox="0 0 4348 940" fill="none" xmlns="http://www.w3.org/2000/svg">
<path d="M1279.8 690.4C1288.33 690.4 1295.27 693.333 1300.6 699.2C1305.93 705.067 1308.6 712.533 1308.6 721.6C1308.6 730.133 1305.4 737.333 1299 743.2C1292.6 749.067 1284.6 752 1275 752H1258.2C1229.93 752 1204.6 745.333 1182.2 732C1159.8 718.133 1142.2 699.733 1129.4 676.8C1117.13 653.333 1111 626.933 1111 597.6V384H1059C1050.47 384 1043.53 381.6 1038.2 376.8C1033.4 371.467 1031 365.067 1031 357.6C1031 349.6 1033.4 343.2 1038.2 338.4C1043.53 333.067 1050.47 330.4 1059 330.4H1111V206.4C1111 197.333 1113.67 189.867 1119 184C1124.87 178.133 1132.33 175.2 1141.4 175.2C1150.47 175.2 1157.93 178.133 1163.8 184C1169.67 189.867 1172.6 197.333 1172.6 206.4V330.4H1263C1271.53 330.4 1278.2 333.067 1283 338.4C1288.33 343.2 1291 349.6 1291 357.6C1291 365.067 1288.33 371.467 1283 376.8C1278.2 381.6 1271.53 384 1263 384H1172.6V597.6C1172.6 624.8 1180.6 647.2 1196.6 664.8C1212.6 681.867 1233.13 690.4 1258.2 690.4H1279.8ZM1590.48 309.6C1612.88 309.6 1630.48 312.533 1643.28 318.4C1656.61 324.267 1663.28 332.533 1663.28 343.2C1663.28 346.4 1663.01 348.8 1662.48 350.4C1660.34 357.867 1656.88 362.933 1652.08 365.6C1647.81 368.267 1641.68 369.6 1633.68 369.6C1628.88 369.6 1620.61 369.067 1608.88 368C1604.61 367.467 1598.21 367.2 1589.68 367.2C1549.68 367.2 1516.88 377.867 1491.28 399.2C1466.21 420.533 1453.68 448.267 1453.68 482.4V721.6C1453.68 731.2 1451.01 738.667 1445.68 744C1440.34 749.333 1432.88 752 1423.28 752C1413.68 752 1406.21 749.333 1400.88 744C1395.54 738.667 1392.88 731.2 1392.88 721.6V344.8C1392.88 335.2 1395.54 327.733 1400.88 322.4C1406.21 317.067 1413.68 314.4 1423.28 314.4C1432.88 314.4 1440.34 317.067 1445.68 322.4C1451.01 327.733 1453.68 335.2 1453.68 344.8V380C1469.14 357.6 1488.88 340.267 1512.88 328C1536.88 315.733 1562.74 309.6 1590.48 309.6ZM1756.08 345.6C1756.08 336.533 1759.01 329.067 1764.88 323.2C1770.75 317.333 1778.21 314.4 1787.28 314.4C1796.35 314.4 1803.55 317.333 1808.88 323.2C1814.75 329.067 1817.68 336.533 1817.68 345.6V720.8C1817.68 729.867 1814.75 737.333 1808.88 743.2C1803.55 749.067 1796.35 752 1787.28 752C1778.21 752 1770.75 749.067 1764.88 743.2C1759.01 737.333 1756.08 729.867 1756.08 720.8V345.6ZM1787.28 144C1799.01 144 1809.15 148 1817.68 156C1826.21 164 1830.48 174.4 1830.48 187.2C1830.48 199.467 1826.21 209.867 1817.68 218.4C1809.15 226.933 1798.75 231.2 1786.48 231.2C1774.21 231.2 1763.81 226.933 1755.28 218.4C1747.28 209.867 1743.28 199.467 1743.28 187.2C1743.28 174.4 1747.55 164 1756.08 156C1764.61 148 1775.01 144 1787.28 144ZM2180.93 310.4C2222.53 310.4 2260.13 320.267 2293.73 340C2327.86 359.2 2354.53 385.867 2373.73 420C2393.46 454.133 2403.33 492 2403.33 533.6C2403.33 575.2 2393.73 613.067 2374.53 647.2C2355.86 680.8 2330 707.467 2296.93 727.2C2264.4 746.4 2227.86 756 2187.33 756C2152.66 756 2120.93 748.8 2092.13 734.4C2063.33 719.467 2039.6 699.2 2020.93 673.6V908C2020.93 917.067 2018 924.533 2012.13 930.4C2006.26 936.267 1998.8 939.2 1989.73 939.2C1980.66 939.2 1973.2 936.267 1967.33 930.4C1962 924.533 1959.33 917.067 1959.33 908V728.8C1958.8 727.2 1958.53 724.8 1958.53 721.6V533.6C1958.53 492 1968.13 454.133 1987.33 420C2007.06 385.867 2033.73 359.2 2067.33 340C2101.46 320.267 2139.33 310.4 2180.93 310.4ZM2180.93 700C2211.33 700 2238.8 692.8 2263.33 678.4C2288.4 664 2307.86 644.267 2321.73 619.2C2336.13 593.6 2343.33 565.067 2343.33 533.6C2343.33 502.133 2336.13 473.867 2321.73 448.8C2307.86 423.2 2288.4 403.2 2263.33 388.8C2238.8 373.867 2211.33 366.4 2180.93 366.4C2150.53 366.4 2123.06 373.867 2098.53 388.8C2074 403.2 2054.53 423.2 2040.13 448.8C2026.26 473.867 2019.33 502.133 2019.33 533.6C2019.33 542.667 2019.6 549.333 2020.13 553.6C2020.66 554.667 2020.93 556 2020.93 557.6C2026.26 599.2 2043.6 633.333 2072.93 660C2102.8 686.667 2138.8 700 2180.93 700ZM2691.36 330.4C2699.89 330.4 2706.56 333.067 2711.36 338.4C2716.69 343.2 2719.36 349.6 2719.36 357.6C2719.36 365.067 2716.69 371.467 2711.36 376.8C2706.56 381.6 2699.89 384 2691.36 384H2594.56V720.8C2594.56 729.333 2591.62 736.8 2585.76 743.2C2579.89 749.067 2572.42 752 2563.36 752C2554.82 752 2547.62 749.067 2541.76 743.2C2535.89 737.333 2532.96 729.867 2532.96 720.8V384H2481.76C2473.22 384 2466.29 381.6 2460.96 376.8C2456.16 371.467 2453.76 365.067 2453.76 357.6C2453.76 349.6 2456.16 343.2 2460.96 338.4C2466.29 333.067 2473.22 330.4 2481.76 330.4H2532.96V310.4C2532.96 253.333 2548.16 208.267 2578.56 175.2C2609.49 141.6 2657.76 124.8 2723.36 124.8C2757.49 124.8 2786.82 130.4 2811.36 141.6C2836.42 152.267 2848.96 166.667 2848.96 184.8C2848.96 207.733 2835.89 219.2 2809.76 219.2C2802.29 219.2 2795.09 217.6 2788.16 214.4C2781.76 211.2 2774.02 206.133 2764.96 199.2C2754.82 191.2 2744.96 185.067 2735.36 180.8C2726.29 176 2715.89 173.6 2704.16 173.6C2669.49 173.6 2642.56 184.267 2623.36 205.6C2604.16 226.933 2594.56 261.867 2594.56 310.4V330.4H2691.36ZM2811.36 314.4C2820.42 314.4 2827.62 317.333 2832.96 323.2C2838.82 329.067 2841.76 336.533 2841.76 345.6V720.8C2841.76 729.867 2838.82 737.333 2832.96 743.2C2827.62 749.067 2820.42 752 2811.36 752C2802.29 752 2794.82 749.067 2788.96 743.2C2783.09 737.333 2780.16 729.867 2780.16 720.8V345.6C2780.16 336.533 2783.09 329.067 2788.96 323.2C2794.82 317.333 2802.29 314.4 2811.36 314.4ZM3301.31 704C3307.18 711.467 3310.11 718.667 3310.11 725.6C3310.11 733.067 3307.18 739.467 3301.31 744.8C3295.98 749.6 3289.85 752 3282.91 752C3276.51 752 3271.18 750.933 3266.91 748.8C3262.65 746.667 3258.65 742.933 3254.91 737.6L3123.71 570.4L2987.71 742.4C2982.91 748.8 2975.71 752 2966.11 752C2957.58 752 2950.65 749.333 2945.31 744C2940.51 738.667 2938.11 732.267 2938.11 724.8C2938.11 716.267 2940.78 709.067 2946.11 703.2L3084.51 530.4L2953.31 364C2947.98 358.133 2945.31 350.933 2945.31 342.4C2945.31 334.4 2947.71 327.733 2952.51 322.4C2957.31 317.067 2964.25 314.4 2973.31 314.4C2982.38 314.4 2990.11 317.6 2996.51 324L3125.31 489.6L3252.51 328.8C3259.98 319.2 3268.78 314.4 3278.91 314.4C3287.45 314.4 3294.11 317.067 3298.91 322.4C3304.25 327.733 3306.91 334.133 3306.91 341.6C3306.91 349.6 3303.98 357.333 3298.11 364.8L3165.31 529.6L3301.31 704ZM3546.15 310.4C3585.62 310.4 3620.55 319.733 3650.95 338.4C3681.35 356.533 3704.82 381.867 3721.35 414.4C3738.42 446.933 3746.95 484 3746.95 525.6C3746.95 534.133 3744.28 541.067 3738.95 546.4C3733.62 551.2 3726.68 553.6 3718.15 553.6H3394.95C3399.22 597.333 3416.28 632.8 3446.15 660C3476.02 687.2 3513.35 700.8 3558.15 700.8C3577.35 700.8 3596.55 697.6 3615.75 691.2C3635.48 684.267 3651.22 675.733 3662.95 665.6C3669.88 660.267 3677.08 657.6 3684.55 657.6C3690.42 657.6 3696.28 659.733 3702.15 664C3709.08 670.4 3712.55 677.6 3712.55 685.6C3712.55 692.533 3709.62 698.667 3703.75 704C3686.15 718.933 3663.75 731.467 3636.55 741.6C3609.35 751.2 3583.22 756 3558.15 756C3515.48 756 3477.35 746.667 3443.75 728C3410.15 708.8 3383.75 682.4 3364.55 648.8C3345.88 614.667 3336.55 576.267 3336.55 533.6C3336.55 490.4 3345.35 452 3362.95 418.4C3381.08 384.267 3405.88 357.867 3437.35 339.2C3469.35 320 3505.62 310.4 3546.15 310.4ZM3546.15 365.6C3505.62 365.6 3472.02 378.133 3445.35 403.2C3418.68 428.267 3402.42 461.333 3396.55 502.4H3689.35C3685.08 461.333 3670.15 428.267 3644.55 403.2C3618.95 378.133 3586.15 365.6 3546.15 365.6ZM4240.33 337.6C4240.86 339.2 4241.13 341.6 4241.13 344.8V532.8C4241.13 574.4 4231.26 612.267 4211.53 646.4C4192.33 680.533 4165.66 707.467 4131.53 727.2C4097.93 746.4 4060.33 756 4018.73 756C3977.13 756 3939.26 746.4 3905.13 727.2C3871.53 707.467 3844.86 680.533 3825.13 646.4C3805.93 612.267 3796.33 574.4 3796.33 532.8C3796.33 491.2 3805.66 453.6 3824.33 420C3843.53 385.867 3869.4 359.2 3901.93 340C3935 320.267 3971.8 310.4 4012.33 310.4C4047 310.4 4078.73 317.867 4107.53 332.8C4136.33 347.2 4160.06 367.2 4178.73 392.8V158.4C4178.73 149.333 4181.66 141.867 4187.53 136C4193.4 130.133 4200.86 127.2 4209.93 127.2C4219 127.2 4226.2 130.133 4231.53 136C4237.4 141.867 4240.33 149.333 4240.33 158.4V337.6ZM4018.73 700C4049.13 700 4076.6 692.8 4101.13 678.4C4125.66 663.467 4144.86 643.467 4158.73 618.4C4173.13 592.8 4180.33 564.267 4180.33 532.8C4180.33 523.733 4180.06 517.067 4179.53 512.8C4179 511.733 4178.73 510.4 4178.73 508.8C4173.4 467.2 4155.8 433.067 4125.93 406.4C4096.6 379.733 4060.86 366.4 4018.73 366.4C3988.33 366.4 3960.6 373.6 3935.53 388C3911 402.4 3891.53 422.4 3877.13 448C3863.26 473.067 3856.33 501.333 3856.33 532.8C3856.33 564.267 3863.26 592.8 3877.13 618.4C3891.53 643.467 3911 663.467 3935.53 678.4C3960.6 692.8 3988.33 700 4018.73 700Z" fill="white"/>
<g filter="url(#filter0_i)">
<mask id="mask0" mask-type="alpha" maskUnits="userSpaceOnUse" x="0" y="0" width="900" height="900">
<path d="M900 450C900 698.528 698.528 900 450 900C201.472 900 0 698.528 0 450C0 201.472 201.472 0 450 0C698.528 0 900 201.472 900 450Z" fill="white"/>
</mask>
<g mask="url(#mask0)">
<rect x="121.824" y="-616" width="1902.6" height="690.359" transform="rotate(37 121.824 -616)" fill="#03A9F4"/>
<rect x="-134.279" y="-303" width="1902.6" height="526.797" transform="rotate(37 -134.279 -303)" fill="#00BCD4"/>
<rect x="-141.979" y="-33.0889" width="1902.6" height="550.496" transform="rotate(37 -141.979 -33.0889)" fill="#8BC34A"/>
<rect x="-320.279" y="126" width="1902.6" height="793.8" transform="rotate(37 -320.279 126)" fill="#CDDC39"/>
</g>
</g>
<g filter="url(#filter1_d)">
<mask id="mask1" mask-type="alpha" maskUnits="userSpaceOnUse" x="157" y="174" width="603" height="566">
<path d="M623.877 203.01L361.91 533.214C351.732 546.043 336.48 553.488 320.374 553.488H207.522C193.65 553.488 180.47 559.718 171.442 570.543C157.684 587.039 150 639 167.5 655.5L248.5 719C248.5 719 276.189 740 306.5 740H325C351.999 740 355.726 727.519 372.787 706.011L752.92 226.79C757.499 221.018 760 213.797 760 206.349C760 188.483 745.908 174 728.526 174H683.311C660.265 174 638.441 184.652 623.877 203.01Z" fill="white"/>
</mask>
<g mask="url(#mask1)">
<rect x="-80.4154" y="19.0684" width="1128.7" height="928.534" fill="white"/>
</g>
</g>
<defs>
<filter id="filter0_i" x="0" y="0" width="900" height="904" filterUnits="userSpaceOnUse" color-interpolation-filters="sRGB">
<feFlood flood-opacity="0" result="BackgroundImageFix"/>
<feBlend mode="normal" in="SourceGraphic" in2="BackgroundImageFix" result="shape"/>
<feColorMatrix in="SourceAlpha" type="matrix" values="0 0 0 0 0 0 0 0 0 0 0 0 0 0 0 0 0 0 127 0" result="hardAlpha"/>
<feOffset dy="4"/>
<feGaussianBlur stdDeviation="75"/>
<feComposite in2="hardAlpha" operator="arithmetic" k2="-1" k3="1"/>
<feColorMatrix type="matrix" values="0 0 0 0 0 0 0 0 0 0 0 0 0 0 0 0 0 0 0.3 0"/>
<feBlend mode="normal" in2="shape" result="effect1_innerShadow"/>
</filter>
<filter id="filter1_d" x="57.358" y="78" width="802.642" height="766" filterUnits="userSpaceOnUse" color-interpolation-filters="sRGB">
<feFlood flood-opacity="0" result="BackgroundImageFix"/>
<feColorMatrix in="SourceAlpha" type="matrix" values="0 0 0 0 0 0 0 0 0 0 0 0 0 0 0 0 0 0 127 0"/>
<feOffset dy="4"/>
<feGaussianBlur stdDeviation="50"/>
<feColorMatrix type="matrix" values="0 0 0 0 0 0 0 0 0 0 0 0 0 0 0 0 0 0 0.25 0"/>
<feBlend mode="normal" in2="BackgroundImageFix" result="effect1_dropShadow"/>
<feBlend mode="normal" in="SourceGraphic" in2="effect1_dropShadow" result="shape"/>
</filter>
</defs>
</svg>
