<svg width="256" height="63" viewBox="0 0 256 63" fill="none" xmlns="http://www.w3.org/2000/svg">
<path d="M255 22.1212L248.151 33.3091C246.878 35.389 244.615 36.6572 242.176 36.6572V36.6572C240.206 36.6572 238.326 37.4869 236.999 38.943L232.968 43.3645C231.077 45.4378 228.401 46.6193 225.595 46.6193V46.6193H222V46.6193C218.931 46.6193 216.122 48.3393 214.726 51.0723L212.845 54.7552C211.713 56.9731 209.433 58.369 206.942 58.369V58.369H201.432V58.369C198.143 58.369 195.032 56.8744 192.977 54.3067L191.525 52.4941C188.552 48.7807 184.053 46.6193 179.296 46.6193H171.85V46.6193C167.342 46.6193 163.219 44.0822 161.187 40.0588L156.436 30.6518L153.681 26.3328C152.008 23.7093 149.112 22.1212 146 22.1212V22.1212H136.29H134.168C129.09 22.1212 124.291 24.4398 121.135 28.4174V28.4174C117.979 32.395 113.15 34.7137 108.072 34.7137V34.7137C103.588 34.7137 99.2644 32.9152 96.1163 29.721L93.9682 27.5415C90.5503 24.0737 85.8846 22.1212 81.0156 22.1212V22.1212C75.8651 22.1212 70.9562 19.9372 67.5076 16.1116L67.0428 15.596C63.2984 11.4421 57.9682 9.0708 52.3758 9.0708H45.0917C40.7065 9.0708 36.7202 11.6171 34.8765 15.596V15.596C33.0328 19.5749 29.0466 22.1212 24.6613 22.1212H22.7108C19.5135 22.1212 16.536 20.4945 14.8086 17.804V17.804C11.8067 13.1284 5.42376 12.0674 1.07063 15.5204L0.630722 15.8693" stroke="url(#paint0_linear)" stroke-width="2"/>
<path d="M198.107 23.44L196.2 21.5333C193 23.9733 190.893 27.7333 190.707 32H193.373C193.573 28.4667 195.387 25.3733 198.107 23.44V23.44ZM214.627 32H217.293C217.093 27.7333 214.987 23.9733 211.8 21.5333L209.907 23.44C212.6 25.3733 214.427 28.4667 214.627 32ZM212 32.6667C212 28.5733 209.813 25.1467 206 24.24V23.3333C206 22.2267 205.107 21.3333 204 21.3333C202.893 21.3333 202 22.2267 202 23.3333V24.24C198.173 25.1467 196 28.56 196 32.6667V39.3333L193.333 42V43.3333H214.667V42L212 39.3333V32.6667ZM204 47.3333C204.187 47.3333 204.36 47.32 204.533 47.28C205.4 47.0933 206.107 46.5067 206.453 45.7067C206.587 45.3867 206.653 45.04 206.653 44.6667H201.32C201.333 46.1333 202.52 47.3333 204 47.3333Z" fill="#FAFAFA"/>
<path d="M171.857 9.54199C171.857 6.99902 172.394 5.10645 173.466 3.86426C174.544 2.62207 176.155 2.00098 178.3 2.00098C179.032 2.00098 179.606 2.04492 180.022 2.13281V4.30371C179.501 4.18652 178.985 4.12793 178.476 4.12793C177.544 4.12793 176.782 4.26855 176.19 4.5498C175.604 4.83105 175.165 5.24707 174.872 5.79785C174.579 6.34863 174.406 7.13086 174.354 8.14453H174.468C175.048 7.14844 175.977 6.65039 177.254 6.65039C178.402 6.65039 179.302 7.01074 179.952 7.73145C180.603 8.45215 180.928 9.44824 180.928 10.7197C180.928 12.0908 180.541 13.1777 179.768 13.9805C178.994 14.7773 177.922 15.1758 176.551 15.1758C175.602 15.1758 174.772 14.9561 174.063 14.5166C173.36 14.0771 172.815 13.4355 172.429 12.5918C172.048 11.748 171.857 10.7314 171.857 9.54199ZM176.498 13.0049C177.078 13.0049 177.523 12.8115 177.834 12.4248C178.145 12.0322 178.3 11.4756 178.3 10.7549C178.3 10.1279 178.153 9.63574 177.86 9.27832C177.573 8.91504 177.137 8.7334 176.551 8.7334C176 8.7334 175.528 8.91211 175.136 9.26953C174.749 9.62695 174.556 10.043 174.556 10.5176C174.556 11.2148 174.737 11.8037 175.101 12.2842C175.47 12.7646 175.936 13.0049 176.498 13.0049ZM183.503 15L188.328 4.45312H181.991V2.16797H191.211V3.87305L186.351 15H183.503ZM194.56 6C194.56 6.74414 194.624 7.30078 194.753 7.66992C194.888 8.0332 195.102 8.21484 195.395 8.21484C195.957 8.21484 196.238 7.47656 196.238 6C196.238 4.53516 195.957 3.80273 195.395 3.80273C195.102 3.80273 194.888 3.98438 194.753 4.34766C194.624 4.70508 194.56 5.25586 194.56 6ZM198.453 5.98242C198.453 7.33008 198.192 8.34375 197.671 9.02344C197.149 9.69727 196.385 10.0342 195.377 10.0342C194.41 10.0342 193.663 9.68848 193.136 8.99707C192.608 8.2998 192.345 7.29492 192.345 5.98242C192.345 3.30469 193.355 1.96582 195.377 1.96582C196.367 1.96582 197.126 2.31445 197.653 3.01172C198.187 3.70313 198.453 4.69336 198.453 5.98242ZM204.5 2.15039L197.372 15H195.263L202.391 2.15039H204.5ZM203.56 11.1328C203.56 11.877 203.624 12.4336 203.753 12.8027C203.888 13.166 204.102 13.3477 204.395 13.3477C204.957 13.3477 205.238 12.6094 205.238 11.1328C205.238 9.66797 204.957 8.93555 204.395 8.93555C204.102 8.93555 203.888 9.11719 203.753 9.48047C203.624 9.83789 203.56 10.3887 203.56 11.1328ZM207.453 11.1152C207.453 12.457 207.192 13.4678 206.671 14.1475C206.149 14.8213 205.385 15.1582 204.377 15.1582C203.41 15.1582 202.663 14.8125 202.136 14.1211C201.608 13.4238 201.345 12.4219 201.345 11.1152C201.345 8.4375 202.355 7.09863 204.377 7.09863C205.367 7.09863 206.126 7.44727 206.653 8.14453C207.187 8.83594 207.453 9.82617 207.453 11.1152ZM216.233 10.0693C216.233 11.042 216.392 11.7773 216.708 12.2754C217.03 12.7734 217.552 13.0225 218.272 13.0225C218.987 13.0225 219.5 12.7764 219.811 12.2842C220.127 11.7861 220.285 11.0479 220.285 10.0693C220.285 9.09668 220.127 8.36719 219.811 7.88086C219.494 7.39453 218.976 7.15137 218.255 7.15137C217.54 7.15137 217.024 7.39453 216.708 7.88086C216.392 8.36133 216.233 9.09082 216.233 10.0693ZM223.027 10.0693C223.027 11.6689 222.605 12.9199 221.762 13.8223C220.918 14.7246 219.743 15.1758 218.237 15.1758C217.294 15.1758 216.462 14.9707 215.741 14.5605C215.021 14.1445 214.467 13.5498 214.08 12.7764C213.693 12.0029 213.5 11.1006 213.5 10.0693C213.5 8.46387 213.919 7.21582 214.757 6.3252C215.595 5.43457 216.772 4.98926 218.29 4.98926C219.233 4.98926 220.065 5.19434 220.786 5.60449C221.507 6.01465 222.061 6.60352 222.447 7.37109C222.834 8.13867 223.027 9.03809 223.027 10.0693ZM230.674 7.18652H228.354V15H225.673V7.18652H224.196V5.89453L225.673 5.17383V4.45312C225.673 3.33398 225.948 2.5166 226.499 2.00098C227.05 1.48535 227.932 1.22754 229.145 1.22754C230.07 1.22754 230.894 1.36523 231.614 1.64062L230.929 3.60938C230.39 3.43945 229.892 3.35449 229.435 3.35449C229.054 3.35449 228.778 3.46875 228.608 3.69727C228.438 3.91992 228.354 4.20703 228.354 4.55859V5.17383H230.674V7.18652ZM237.644 7.18652H235.323V15H232.643V7.18652H231.166V5.89453L232.643 5.17383V4.45312C232.643 3.33398 232.918 2.5166 233.469 2.00098C234.02 1.48535 234.901 1.22754 236.114 1.22754C237.04 1.22754 237.863 1.36523 238.584 1.64062L237.898 3.60938C237.359 3.43945 236.861 3.35449 236.404 3.35449C236.023 3.35449 235.748 3.46875 235.578 3.69727C235.408 3.91992 235.323 4.20703 235.323 4.55859V5.17383H237.644V7.18652Z" fill="white"/>
<line x1="19.6654" y1="63.0007" x2="19.6654" y2="22.3325" stroke="#FAFAFA" stroke-opacity="0.4" stroke-dasharray="2.5 2.5"/>
<line x1="71.6658" y1="63.0006" x2="71.6658" y2="20.4854" stroke="#FAFAFA" stroke-opacity="0.4" stroke-dasharray="2.5 2.5"/>
<line x1="124.351" y1="63.0006" x2="124.351" y2="25.1057" stroke="#FAFAFA" stroke-opacity="0.4" stroke-dasharray="2.5 2.5"/>
<line x1="175.5" y1="61.9967" x2="175.604" y2="46.354" stroke="#FAFAFA" stroke-opacity="0.4" stroke-dasharray="2.5 2.5"/>
<path d="M227.49 62V47.5" stroke="#FAFAFA" stroke-opacity="0.4" stroke-dasharray="2.5 2.5"/>
<defs>
<linearGradient id="paint0_linear" x1="5.63307" y1="58.369" x2="255" y2="58.369" gradientUnits="userSpaceOnUse">
<stop stop-color="white" stop-opacity="0"/>
<stop offset="0.21547" stop-color="white"/>
<stop offset="0.823204" stop-color="white"/>
<stop offset="1" stop-color="white" stop-opacity="0"/>
</linearGradient>
</defs>
</svg>
